<?xml version="1.0" encoding="UTF-8"?>
<!DOCTYPE svg PUBLIC "-//W3C//DTD SVG 1.1//EN" "http://www.w3.org/Graphics/SVG/1.1/DTD/svg11.dtd">
<!-- Creator: CorelDRAW 2021 (64-Bit) -->
<svg xmlns="http://www.w3.org/2000/svg" xml:space="preserve" width="5.66993in" height="11.84in" version="1.1" style="shape-rendering:geometricPrecision; text-rendering:geometricPrecision; image-rendering:optimizeQuality; fill-rule:evenodd; clip-rule:evenodd"
viewBox="0 0 5669.94 11840.06"
 xmlns:xlink="http://www.w3.org/1999/xlink"
 xmlns:xodm="http://www.corel.com/coreldraw/odm/2003">
 <defs>
  <style type="text/css">
   <![CDATA[
    .fil10 {fill:none;fill-rule:nonzero}
    .fil3 {fill:#3B97D3;fill-rule:nonzero}
    .fil2 {fill:#47821C;fill-rule:nonzero}
    .fil0 {fill:#4E901E;fill-rule:nonzero}
    .fil1 {fill:#5EAC24;fill-rule:nonzero}
    .fil4 {fill:#95A5A5;fill-rule:nonzero}
    .fil9 {fill:#C03A2B;fill-rule:nonzero}
    .fil7 {fill:#E64C3C;fill-rule:nonzero}
    .fil6 {fill:#F29C1F;fill-rule:nonzero}
    .fil5 {fill:#F3D55B;fill-rule:nonzero}
    .fil8 {fill:#F5EFCA;fill-rule:nonzero}
   ]]>
  </style>
 </defs>
 <g id="Layer_x0020_1">
  <metadata id="CorelCorpID_0Corel-Layer"/>
  <g id="_2215829695344">
   <path class="fil0" d="M5137.89 348.37c-149.05,-47.69 -220.59,-113.28 -411.38,-229.53 -28.12,-19.49 -44.92,-51.55 -44.92,-85.77 0,-2.21 0.07,-4.45 0.22,-6.63 1.11,-8.82 2.26,-17.63 3.44,-26.43l984.68 0 0 1086.15c-2.13,-0.94 -4.6,-1.48 -7.39,-1.48 -307.05,-20.86 -623.03,-74.52 -885.36,-190.79 -5.96,0 -8.94,-5.96 -11.92,-11.91 -23.84,-110.3 -65.58,-339.83 -83.46,-497.83 1.34,-12.58 11.27,-22.52 23.85,-23.86l0 0c181.84,17.88 324.93,26.83 426.28,29.81 9.07,-0.98 15.96,-8.65 15.96,-17.79 0,-2.07 -0.36,-4.13 -1.06,-6.07 0.03,-0.41 0.05,-0.82 0.05,-1.22 0,-5.94 -3.54,-11.32 -8.99,-13.68l0 -2.98 -0.01 0zm532.04 1864.95c-89.63,-50.3 -173.23,-111 -248.78,-180.72 -4.47,-4.43 -6.94,-10.46 -6.94,-16.72 0,-4.64 1.36,-9.18 3.89,-13.06l11.92 -5.96c89.71,-20.8 170.91,-61.46 239.9,-107.35l0 323.82 0 0zm0 -481.66c-178.83,47.46 -331.45,76.13 -529.06,14.8l-11.92 -8.95 -298.1 -500.81c-4.83,-3.34 -7.71,-8.84 -7.71,-14.71 0,-4.49 1.69,-8.82 4.73,-12.12 3.39,-3.95 8.35,-6.23 13.56,-6.23 3.68,0 7.27,1.14 10.28,3.25l0 0c327.91,86.45 664.76,-20.86 816.79,-83.46 0.49,-0.24 0.96,-0.51 1.42,-0.78l0 609.01 -0 0z"/>
   <path class="fil0" d="M4681.81 35.37c-0.02,0.86 -0.03,1.76 -0.03,2.63 0,32.85 16.91,63.4 44.75,80.83 190.79,116.26 262.33,181.85 411.38,229.54 23.85,5.96 14.9,41.74 -5.96,41.74 -101.36,-5.96 -244.45,-11.92 -426.28,-32.79 -12.58,1.34 -22.52,11.28 -23.86,23.86l0 0c17.88,158 59.62,387.53 83.46,497.83 2.98,5.96 5.96,11.91 11.92,11.91 235.5,104.33 515.71,158 792.95,181.85l92.41 8.94c2.78,0 5.24,0.53 7.38,1.48l0 -1083.17 -983.55 0c-1.65,11.85 -3.24,23.7 -4.78,35.54l0.2 -0.17 0 -0.01zm988.13 1084.3c-0.46,0.28 -0.93,0.54 -1.42,0.78l-59.62 23.85c-166.93,59.62 -465.04,137.12 -757.17,59.62 -3.06,-2.13 -6.7,-3.29 -10.43,-3.29 -10.05,0 -18.19,8.15 -18.19,18.19 0,5.93 2.9,11.5 7.76,14.9 321.95,539.56 301.08,506.77 310.02,509.76 197.61,61.33 350.23,32.65 529.06,-13.48l0 -610.33zm0 770.89c-137.76,91.13 -240.57,103.09 -248.84,109.28 -4.49,4.47 -7,10.55 -7,16.89 0,2.35 0.35,4.71 1.04,6.97l0 0c4.84,12.09 113.65,110.5 254.8,190.19l0 -323.32 0 -0.01z"/>
   <path class="fil1" d="M4851.72 1203.93c292.14,77.5 590.24,0 757.17,-59.62 19.76,35.66 40.11,70.98 61.04,105.97l0 482.71c-178.83,46.15 -331.45,74.81 -529.06,13.48 -8.95,-2.98 11.92,29.81 -310.02,-509.76 -4.86,-3.41 -7.76,-8.97 -7.76,-14.9 0,-10.05 8.15,-18.19 18.19,-18.19 3.74,0 7.38,1.16 10.43,3.29l0 -2.98zm818.21 1010.08c-141.18,-79.69 -250,-178.11 -254.83,-190.2l0.02 -0.11c-0.69,-2.25 -1.04,-4.61 -1.04,-6.97 0,-6.33 2.53,-12.4 7.01,-16.88 8.26,-6.2 111.08,-18.16 248.85,-109.3l0 323.46 0 -0z"/>
   <path class="fil1" d="M5150.41 0c86.09,322.56 214.82,691.54 419.73,1072.73 -277.23,-23.85 -557.45,-77.5 -792.95,-181.84 -5.96,0 -8.94,-5.96 -11.91,-11.92 -23.85,-110.3 -65.59,-339.83 -83.46,-497.83 1.35,-12.56 11.29,-22.5 23.87,-23.82l0 0c181.84,20.86 324.93,26.83 426.28,32.79 20.87,0 29.81,-35.77 5.96,-41.74 -149.05,-47.69 -220.59,-113.28 -411.38,-229.54 -27.83,-17.44 -44.75,-47.98 -44.75,-80.83 0,-0.87 0.01,-1.77 0.03,-2.63 1.54,-11.79 3.14,-23.58 4.79,-35.37l463.8 0 -0 -0z"/>
   <path class="fil2" d="M5358.49 74.13c-5.06,8.37 -7.74,17.98 -7.74,27.76 0,17.4 8.44,33.72 22.63,43.79 102.84,69.03 201.69,127.4 296.54,174.19l0 -115.76c-77.57,-40.62 -158.54,-89.07 -242.88,-144.87 -7.87,-5.31 -17.19,-8.17 -26.69,-8.17 -15.45,0 -29.96,7.49 -38.89,20.09l-2.98 2.98 0.01 -0.01z"/>
   <path class="fil2" d="M5174.96 0c11.39,8.83 22.81,17.59 34.27,26.31l23.85 11.92c23.82,-1.11 43.65,-16.76 50.94,-38.23l-109.06 0 0 0z"/>
   <path class="fil2" d="M4979.91 1484.13c20.87,32.79 41.74,65.59 59.62,98.37 144.68,-13.15 386.08,-39.21 630.41,-84.13l0 -103.25c-276.06,50.87 -554.99,77.74 -690.03,89l0 0z"/>
   <polygon class="fil2" points="5653.61,2205.53 5669.93,2213.97 5669.93,2189.2 "/>
   <path class="fil2" d="M4708.63 565.99l17.88 110.3c235.25,70.77 477.39,123.21 721.19,155.01l15.1 0c68.49,7.2 138.04,12.14 207.11,13.72l0 -106.75c-90,-2.83 -182.18,-11.34 -272.69,-23.23 -232.33,-32.94 -463.61,-83.33 -688.83,-148.88l0.22 -0.17 0 0z"/>
  </g>
  <g id="_2215829697744">
   <g>
    <path class="fil3" d="M66.28 1292.12c5.61,-21.63 -7.36,-43.71 -28.97,-49.34 -13.68,-3.55 -27.53,0.31 -37.29,9.11l66.28 40.24 -0.01 0zm0 0l-66.28 -1292.12 66.28 1292.12z"/>
   </g>
   <path class="fil4" d="M106.98 1135.48l-106.19 408.43 -0.78 -1.34 0 -562.27c31.46,54.24 67.2,106.15 106.98,155.17l-0.01 0.01z"/>
   <polygon class="fil5" points="0.79,1543.91 -0,1546.93 -0,1542.57 "/>
   <path class="fil6" d="M88.78 0c-31.98,17.31 -61.83,38.48 -88.78,63.11l0 -63.11 88.78 0z"/>
   <path class="fil7" d="M88.78 0c-31.98,17.31 -61.83,38.48 -88.78,63.11l0 917.28c31.46,54.21 67.21,106.08 106.98,155.09 0,0 508.07,-185.17 624.26,-632 29.72,-114.22 12.85,-235.6 -46.94,-337.41 -41.45,-70.59 -101.17,-127.76 -172,-166.08l-423.53 0 0 0zm160.78 587.25c-129.75,-33.75 -207.59,-166.28 -173.82,-296.06 33.75,-129.75 166.31,-207.57 296.06,-173.83 129.75,33.75 207.59,166.28 173.83,296.06 -16.21,62.3 -56.48,115.65 -112.04,148.22 -55.51,32.61 -121.7,41.83 -184.04,25.61l0 0z"/>
   <path class="fil8" d="M249.57 587.26c129.78,33.77 262.32,-44.08 296.07,-173.83 33.77,-129.78 -44.08,-262.31 -173.83,-296.06 -129.75,-33.75 -262.32,44.07 -296.06,173.83 -33.77,129.78 44.07,262.31 173.82,296.06z"/>
   <path class="fil9" d="M239.41 626.41c-151.38,-39.35 -242.2,-194.02 -202.81,-345.38 39.38,-151.42 194.02,-242.2 345.4,-202.85 151.39,39.41 242.19,194.05 202.83,345.43 -18.92,72.68 -65.93,134.91 -130.7,172.93 -64.78,38.02 -142.03,48.79 -214.72,29.87zm122.21 -469.9c-108.14,-28.12 -218.57,36.73 -246.73,144.87 -28.11,108.13 36.77,218.59 144.87,246.73 108.14,28.11 218.59,-36.77 246.73,-144.89 13.5,-51.92 5.83,-107.08 -21.33,-153.35 -27.16,-46.28 -71.59,-79.85 -123.54,-93.36l0 0z"/>
  </g>
  <rect class="fil10" y="0" width="5669.93" height="11840.05"/>
 </g>
</svg>
