<svg id="Capa_1" data-name="Capa 1" xmlns="http://www.w3.org/2000/svg" viewBox="0 0 26 26"><defs><style>.cls-1{fill:#426aa5;}</style></defs><path class="cls-1" d="M21.1,0H4.9A4.9,4.9,0,0,0,0,4.9V21.1A4.9,4.9,0,0,0,4.9,26H21.1A4.9,4.9,0,0,0,26,21.1V4.9A4.9,4.9,0,0,0,21.1,0ZM18.8,17.4l-1.4,1.4a.6.6,0,0,1-.9,0L13,15.3,9.5,18.8a.6.6,0,0,1-.9,0L7.2,17.4a.6.6,0,0,1,0-.9L10.7,13,7.2,9.5a.7.7,0,0,1,0-.9L8.6,7.2a.7.7,0,0,1,.9,0L13,10.7l3.5-3.5a.6.6,0,0,1,.9,0l1.4,1.4a.6.6,0,0,1,0,.9L15.3,13l3.5,3.5A.7.7,0,0,1,18.8,17.4Z"/></svg>