<svg id="Layer_1" data-name="Layer 1" xmlns="http://www.w3.org/2000/svg" viewBox="0 0 612 612.1"><defs><style>.cls-1{fill:#2e86de;}</style></defs><path class="cls-1" d="M581.5,144.2,467.7,30.4a26.2,26.2,0,0,0-18.5-7.6H449a26.4,26.4,0,0,0-18.6,7.6L316.5,144.3h0L98.1,362.8a27.2,27.2,0,0,0-7.8,17.8L86.9,498a2.8,2.8,0,0,0-.1.9h0a26.3,26.3,0,0,0,7.7,18.6,27.1,27.1,0,0,0,18.7,7.6h.8l117.5-3.6a26.5,26.5,0,0,0,17.8-7.6L581.5,181.7a26.6,26.6,0,0,0,0-37.4ZM449,239.4,372.6,163,449,86.4l76.6,76.4ZM219.4,469.1l-79,2.5,2.4-79L335.2,200.4l76.5,76.3Z" transform="translate(0 0)"/><path class="cls-1" d="M579.2,273.1h-.1a32.8,32.8,0,0,0-32.8,32.8h0V546.4H65.7V65.8h242a32.9,32.9,0,1,0,0-65.8H32.8A32.8,32.8,0,0,0,0,32.8H0V579.3a32.8,32.8,0,0,0,32.8,32.8H579.2A32.8,32.8,0,0,0,612,579.3V306a32.8,32.8,0,0,0-32.8-32.8h0Z" transform="translate(0 0)"/></svg>