<svg id="Layer_1" data-name="Layer 1" xmlns="http://www.w3.org/2000/svg" viewBox="0 0 612 612"><defs><style>.cls-1{fill:#3787db;}</style></defs><path class="cls-1" d="M581.5,144.2,467.7,30.3a26.4,26.4,0,0,0-18.6-7.6H449a26.7,26.7,0,0,0-18.6,7.6L316.5,144.2h0L98.1,362.7a27.2,27.2,0,0,0-7.8,17.8L86.9,498a3.4,3.4,0,0,0-.1,1,26.3,26.3,0,0,0,7.7,18.5,26.7,26.7,0,0,0,18.7,7.6h.8l117.5-3.6a25.8,25.8,0,0,0,17.8-7.6L581.5,181.6a26.6,26.6,0,0,0,0-37.4ZM449,239.4,372.6,163,449,86.4l76.6,76.4L449,239.4ZM219.4,469.1l-79,2.5,2.4-79L335.2,200.3l76.5,76.4L219.4,469.1Z" transform="translate(0 0)"/><path class="cls-1" d="M579.2,273.1a32.8,32.8,0,0,0-32.9,32.8V546.3H65.7V65.7H305.9a32.9,32.9,0,1,0,0-65.7H32.8A32.8,32.8,0,0,0,0,32.8V579.2A32.8,32.8,0,0,0,32.8,612H579.2A32.8,32.8,0,0,0,612,579.2V305.9a32.8,32.8,0,0,0-32.8-32.8Z" transform="translate(0 0)"/></svg>