<svg id="Layer_1" data-name="Layer 1" xmlns="http://www.w3.org/2000/svg" viewBox="0 0 19 19"><defs><style>.cls-1{fill:#2e86de;}</style></defs><path id="_-Color" data-name="🎨-Color" class="cls-1" d="M21.3,11.7a2.2,2.2,0,0,1,0,3.2l-5.9,5.9a2.9,2.9,0,0,1-1.2.7l-1.8.5a1.1,1.1,0,0,1-1.3-1.3l.5-1.8a2.4,2.4,0,0,1,.7-1.2l5.9-5.9A2,2,0,0,1,21.3,11.7Zm-8.9,1.9h0l1.2,1.1-2.1,2.1a4.2,4.2,0,0,0-1,1.7L10,20.3V21H6.2a3.4,3.4,0,0,1-1.7-.5l6.9-6.8h1Zm6.8-.9h0l-6,6-.3.4h0l-.3,1.2,1.2-.3.5-.2h.1l5.9-5.9a.8.8,0,0,0-1.1-1.2ZM17.8,3A3.3,3.3,0,0,1,21,6.1v4.2a3.3,3.3,0,0,0-3.5.6h-.1l-2.7,2.7-1.1-1.1h-.1a2.1,2.1,0,0,0-2.7-.1h-.2L3.7,19.4A1.7,1.7,0,0,1,3,18V6.2A3.3,3.3,0,0,1,6.1,3H17.8Zm-2,3a2.3,2.3,0,0,0,0,4.6,2.3,2.3,0,0,0,2.3-2.3A2.4,2.4,0,0,0,15.8,6Zm0,1.5a.8.8,0,1,1-.8.8A.7.7,0,0,1,15.8,7.5Z" transform="translate(-3 -3)"/></svg>