<svg id="Layer_1" data-name="Layer 1" xmlns="http://www.w3.org/2000/svg" viewBox="0 0 612 550.5"><path d="M166.7,70.6a90.7,90.7,0,0,0-40,9.4c-32,15.7-53.9,49.3-55.9,85.6-1.4,27.5,5.5,50.1,23.8,77.9,5.2,7.9,22.7,28.9,34.8,41.7a18.2,18.2,0,1,0,26.4-25c-12-12.7-27.5-31.6-30.9-36.7-14-21.3-18.8-36.5-17.8-56,1.3-23.3,15.2-44.8,35.6-54.8a53.9,53.9,0,0,1,24-5.7,18.2,18.2,0,1,0,0-36.4Z" transform="translate(0 0)"/><path d="M180.7,289.9h0a18.2,18.2,0,1,0,18.2,18.2,18.1,18.1,0,0,0-18.2-18.2Z" transform="translate(0 0)"/><path d="M547,318.8c12.9-14.1,22.7-26.3,29.4-36.4,18-27.4,38.3-65.8,35.3-120.6a172.4,172.4,0,0,0-51.4-114C529,17,488.2,0,445.3,0c-63,0-114.6,48.2-139,75.9C282.6,48,232.2,0,166.7,0,123.8,0,83,17,51.7,47.8A172.9,172.9,0,0,0,.3,161.8C-2,204.7,8.9,241.9,35.6,282.4c24,36.4,86.4,93.9,132.6,132.1,28.6,23.7,55.6,44,78.1,58.9,36.5,24,51.2,27.1,60,27.1s19.4-2.2,44.9-17.5a130.3,130.3,0,0,0,114.1,67.5c71.8,0,130.3-58.5,130.3-130.3A130.2,130.2,0,0,0,547,318.8ZM335.2,427.2c0,.5.1,1.1.1,1.6s.3,3.6.5,5.3a11,11,0,0,0,.2,1.8c.2,1.7.4,3.4.7,5.1l.3,1.7c.3,1.7.6,3.5,1,5.2s.1.4.1.6c-22.7,14.1-30.7,15.5-31.8,15.7-9.5-1-49.2-23.2-116.7-79.1C133.1,338.1,83.4,288.8,66,262.4c-22.2-33.6-31.3-64.1-29.4-98.7C40.3,93.5,98.7,36.3,166.7,36.3c70.6,0,123.7,78.1,124.2,78.9a18.2,18.2,0,0,0,30,.4c.5-.8,56.9-79.3,124.4-79.3S571.7,93.5,575.4,163.7c1.9,35-6.9,64.5-29.4,98.7-6.3,9.7-16.9,22.5-31,37.4-1-.5-2-.8-3-1.2a23.4,23.4,0,0,0-2.4-.9l-2.6-.9-3.7-1.2-1.6-.5-4.7-1.3-.8-.2-5.5-1.2h-.4l-5.8-1h-.7l-5.6-.7h-1.9l-4.5-.3-6.5-.2c-71.8,0-130.3,58.4-130.3,130.3,0,2.3.1,4.6.2,6.9Zm130.1,86.9a94.1,94.1,0,0,1-89.2-64.4c-.3-.9-.5-1.7-.8-2.5a5,5,0,0,0-.4-1.3c-.8-2.9-1.4-5.8-2-8.7l-.3-2-.3-2.1-.3-2.3a12.3,12.3,0,0,1-.2-1.9,26.4,26.4,0,0,1-.2-2.8,7.6,7.6,0,0,1-.1-1.5c-.1-1.5-.2-2.9-.2-4.4a94.1,94.1,0,0,1,94-94l5.5.2h1.4l4.2.4,1.4.2,4.3.7,1.1.2a96.8,96.8,0,0,1,10.6,2.7l1.6.5,3.2,1.2,2.3.9,2.3,1,2.7,1.2.8.4a93.9,93.9,0,0,1-41.4,178.2Z" transform="translate(0 0)"/><path d="M533.9,405.3a17.8,17.8,0,0,0-17.8-17.8H488.6V367.7c0-8.4-2.4-14.4-7.3-18-7.6-5.6-18.2-2.4-18.6-2.2a3.1,3.1,0,0,0-2.2,3v22.3c0,17.5-20.4,23.5-21.2,23.8l-.7.2a9.5,9.5,0,0,0-8.3-5.1H415.4a9.2,9.2,0,0,0-9.1,9.2V455a9.2,9.2,0,0,0,9.1,9.2H424a3.2,3.2,0,0,0,0-6.4h-8.6a2.8,2.8,0,0,1-2.8-2.8V400.9a2.9,2.9,0,0,1,2.8-2.8h14.9a2.8,2.8,0,0,1,2.8,2.8V452a17.8,17.8,0,0,0,17.8,17.8h54.5c12.1,0,19.8-6.4,21.1-17.3l7.4-46.1v-1.1Zm-6.4.3-7.3,46c-1,7.8-5.9,11.8-14.8,11.8H450.9A11.4,11.4,0,0,1,439.5,452V402.7a3.8,3.8,0,0,0,1.5,0c1-.3,25.8-7.5,25.8-29.9V353.1c2.7-.4,7.4-.7,10.7,1.8s4.7,6.6,4.7,12.8v23a3.2,3.2,0,0,0,3.2,3.2h30.7a11.5,11.5,0,0,1,11.4,11.5v.2Z" transform="translate(0 0)"/></svg>