<svg id="Layer_1" data-name="Layer 1" xmlns="http://www.w3.org/2000/svg" viewBox="0 0 612 550.5"><defs><style>.cls-1{fill:#fefefe;}.cls-2{fill:#ed2f59;fill-rule:evenodd;}.cls-3{fill:#3c92ca;}</style></defs><path class="cls-1" d="M166.7,70.6a90.7,90.7,0,0,0-40,9.4c-32,15.7-53.9,49.3-55.9,85.6-1.4,27.5,5.5,50.1,23.8,77.9,5.2,7.9,22.7,28.9,34.8,41.7a18.2,18.2,0,1,0,26.4-25c-12-12.7-27.5-31.6-30.9-36.7-14-21.3-18.8-36.5-17.8-56,1.3-23.3,15.2-44.8,35.6-54.8a53.9,53.9,0,0,1,24-5.7,18.2,18.2,0,1,0,0-36.4Z" transform="translate(0 0)"/><path class="cls-1" d="M180.7,289.9h0a18.2,18.2,0,1,0,18.2,18.2A18.1,18.1,0,0,0,180.7,289.9Z" transform="translate(0 0)"/><path d="M547,318.8c12.9-14.1,22.7-26.3,29.4-36.4,18-27.4,38.3-65.8,35.3-120.6a172.4,172.4,0,0,0-51.4-114C529,17,488.2,0,445.3,0c-63,0-114.6,48.2-139,75.9C282.6,48,232.2,0,166.7,0,123.8,0,83,17,51.7,47.8A172.9,172.9,0,0,0,.3,161.8C-2,204.7,8.9,241.9,35.6,282.4c24,36.4,86.4,93.9,132.6,132.1,28.6,23.7,55.6,44,78.1,58.9,36.5,24,51.2,27.1,60,27.1s19.4-2.2,44.9-17.5a130.3,130.3,0,0,0,114.1,67.5c71.8,0,130.3-58.5,130.3-130.3A130.2,130.2,0,0,0,547,318.8ZM335.2,427.2c0,.5.1,1.1.1,1.6s.3,3.6.5,5.3a11,11,0,0,0,.2,1.8c.2,1.7.4,3.4.7,5.1l.3,1.7c.3,1.7.6,3.5,1,5.2s.1.4.1.6c-22.7,14.1-30.7,15.5-31.8,15.7-9.5-1-49.2-23.2-116.7-79.1C133.1,338.1,83.4,288.8,66,262.4c-22.2-33.6-31.3-64.1-29.4-98.7C40.3,93.5,98.7,36.3,166.7,36.3c70.6,0,123.7,78.1,124.2,78.9a18.2,18.2,0,0,0,30,.4c.5-.8,56.9-79.3,124.4-79.3S571.7,93.5,575.4,163.7c1.9,35-6.9,64.5-29.4,98.7-6.3,9.7-16.9,22.5-31,37.4-1-.5-2-.8-3-1.2l-2.4-.9-2.6-.9-3.7-1.2-1.6-.5-4.7-1.3-.8-.2-5.5-1.2h-.4l-5.8-1h-.7l-5.6-.7h-1.9l-4.5-.3-6.5-.2c-71.8,0-130.3,58.4-130.3,130.3,0,2.3.1,4.6.2,6.9Zm130.1,86.9a94.1,94.1,0,0,1-89.2-64.4c-.3-.9-.5-1.7-.8-2.5a5,5,0,0,0-.4-1.3c-.8-2.9-1.4-5.8-2-8.7l-.3-2-.3-2.1-.3-2.3a12.3,12.3,0,0,1-.2-1.9,26.4,26.4,0,0,1-.2-2.8,7.6,7.6,0,0,1-.1-1.5c-.1-1.5-.2-2.9-.2-4.4a94.1,94.1,0,0,1,94-94l5.5.2h1.4l4.2.4,1.4.2,4.3.7,1.1.2a96.8,96.8,0,0,1,10.6,2.7l1.6.5,3.2,1.2,2.3.9,2.3,1,2.7,1.2.8.4a93.9,93.9,0,0,1-41.4,178.2Z" transform="translate(0 0)"/><path class="cls-2" d="M335,420.2c0-71.9,58.5-130.3,130.3-130.3l6.5.2,4.5.3h1.9l5.6.7h.7l5.8,1h.4l5.5,1.2.8.2,4.7,1.3,1.6.5,3.7,1.2,2.6.9,2.4.9c1,.4,2,.7,3,1.2,14.1-14.9,24.7-27.7,31-37.4,22.5-34.2,31.3-63.7,29.4-98.7C571.7,93.5,513.3,36.3,445.3,36.3s-123.9,78.5-124.4,79.3a18.2,18.2,0,0,1-30-.4c-.5-.8-53.6-78.9-124.2-78.9-68,0-126.4,57.2-130.1,127.4-1.9,34.6,7.2,65.1,29.4,98.7,17.4,26.4,67.1,75.7,123.6,122.7,67.5,55.9,107.2,78.1,116.7,79.1,1.1-.2,9.1-1.6,31.8-15.7,0-.2-.1-.4-.1-.6s-.7-3.5-1-5.2l-.3-1.7c-.3-1.7-.5-3.4-.7-5.1a11,11,0,0,1-.2-1.8c-.2-1.7-.4-3.5-.5-5.3s-.1-1.1-.1-1.6c-.1-2.4-.2-4.7-.2-7ZM107.1,167.5c-1,19.5,3.8,34.7,17.9,56,3.3,5.1,18.8,24,30.8,36.7a18.2,18.2,0,1,1-26.4,25c-12.1-12.8-29.6-33.8-34.8-41.7-18.3-27.8-25.2-50.4-23.8-77.9,2-36.3,23.9-69.9,55.9-85.6a90.7,90.7,0,0,1,40-9.4,18.2,18.2,0,1,1,0,36.4,53.9,53.9,0,0,0-24,5.7c-20.3,10-34.3,31.5-35.6,54.8Zm55.4,140.6a18.1,18.1,0,0,1,18.2-18.2h0a18.2,18.2,0,1,1-18.2,18.2Z" transform="translate(0 0)"/><path class="cls-3" d="M431.8,476.7H403.1a1.1,1.1,0,0,1-1.2-1.1v-74a1.2,1.2,0,0,1,1.2-1.2h28.7a1.1,1.1,0,0,1,1.1,1.2v74A1.1,1.1,0,0,1,431.8,476.7Z" transform="translate(0 0)"/><path d="M484,345.8c-8.4-6.2-20.1-2.6-20.5-2.5a2.7,2.7,0,0,0-1.9,2.6v25.5c0,8.7-4.1,16-12.3,21.8a46.5,46.5,0,0,1-12.7,6.4h-.2l-1.5.5a5,5,0,0,0-4.3-2.5H404.2a5.1,5.1,0,0,0-5,5.1v71.6a5,5,0,0,0,5,5h26.4a5,5,0,0,0,4.9-3.8,19.6,19.6,0,0,0,14.2,6.1h62.5c13.2,0,21.7-6.9,23.2-19l8-50.7a19.5,19.5,0,0,0-7.7-19,19,19,0,0,0-11.3-3.6H491.9V365.7c0-9.3-2.6-16-7.9-19.9ZM430.2,474H404.6V403.1h25.6V474Zm94.2-79.2a13.4,13.4,0,0,1,8.2,2.6,14.2,14.2,0,0,1,5.4,13.7l-7.9,50.8h0c-1.5,11.9-10.6,14.4-17.9,14.4H449.7a14.1,14.1,0,0,1-14.1-14V405.6l2.5-.8a49.1,49.1,0,0,0,14.2-7.1c9.6-6.8,14.7-15.8,14.7-26.2V348.1c3.1-.6,9.3-1.2,13.8,2.1s5.7,8,5.7,15.5v26.4a2.8,2.8,0,0,0,2.8,2.7Z" transform="translate(0 0)"/></svg>