 <!DOCTYPE svg PUBLIC "-//W3C//DTD SVG 1.1//EN" "http://www.w3.org/Graphics/SVG/1.1/DTD/svg11.dtd">
<svg id="bd75ae84-7d56-4a40-862b-b4a4fe459450" data-name="f4d222e1-0fe1-4a37-aa9d-4c6017a93a9c" xmlns="http://www.w3.org/2000/svg" width="865.76" height="682.89" viewBox="0 0 865.76 682.89">
<defs>
<style xmlns="http://www.w3.org/1999/xhtml">*, ::after, ::before { box-sizing: border-box; }
img, svg { vertical-align: middle; }
</style>
<style xmlns="http://www.w3.org/1999/xhtml">*, body, html { -webkit-font-smoothing: antialiased; }
img, svg { max-width: 100%; }
</style>
</defs>
<g id="aa46959c-28e9-40d8-b92b-f40e90ef18a5" data-name="b11a6ff1-2fd3-4f3c-8e13-c78b80459e44">
<path d="M683.94,138.78C634.72,86.08,566,51,491.62,48.77c-106-3.21-160.54,80.27-239.2,118.8S119.17,239.81,109.54,315.26s-1.6,146.09,64.22,181.4,106-24.08,191-20.87S501.25,575.33,608,546.43c70.23-19,122.31-88.73,141.89-155.8C776.71,298.8,745.65,204.89,683.94,138.78Z" fill="#0071f2" data-primary="true"/>
<path d="M683.94,138.78C634.72,86.08,566,51,491.62,48.77c-106-3.21-160.54,80.27-239.2,118.8S119.17,239.81,109.54,315.26s-1.6,146.09,64.22,181.4,106-24.08,191-20.87S501.25,575.33,608,546.43c70.23-19,122.31-88.73,141.89-155.8C776.71,298.8,745.65,204.89,683.94,138.78Z" fill="#fff" opacity="0.7" style="isolation:isolate"/>
</g>
<g id="fbcc53b9-b788-4c13-ae61-0a95b7e2737e" data-name="eddb1658-1219-4de8-88ce-16585aef1132">
<path d="M575.53,451.15s7.51-5.92,9.44-9.73c1.6-3.21,2.82-7.83,1.12-11.23a6.4,6.4,0,0,0-8.46-3.26h0a5.46,5.46,0,0,0-.64.32c-4.62,2.88-5.12,12.69-3.94,17.41C573.14,445,575.45,451.22,575.53,451.15Z" fill="#0071f2" data-primary="true"/>
<path d="M506.07,500.57c.32.27,5.66,4.15,5.69,4.06s3-9.09,2.51-13.33c-.42-3.59-2-8-5.28-10a6.42,6.42,0,0,0-8.86,2v0a4,4,0,0,0-.36.64C497.53,488.81,502.52,497.27,506.07,500.57Z" fill="#0071f2" data-primary="true"/>
<path d="M663.39,460.14s-27.5,28.37-27.29,63.24,27.88,63,27.88,63,27.49-28.38,27.3-63.23S663.39,460.14,663.39,460.14Z" fill="#0071f2" data-primary="true"/>
<path d="M624.25,544.25a9.38,9.38,0,0,0,1-1.26c2-3,3.71-7.44,2.42-11.06a6.44,6.44,0,0,0-8-4.22,5.17,5.17,0,0,0-.69.26c-3.73,1.76-5.56,7.75-6,12.65-1.49-.35-2.82-.61-4-.8-.5-1.11-1-2.22-1.49-3.36s-.92-2.33-1.4-3.5c-.66-1.73-1.25-3.56-1.84-5.39,2.16-1,8.5-3.94,10.86-6.54s4.82-6.8,4.07-10.58a6.43,6.43,0,0,0-7.32-5.38,2.9,2.9,0,0,0-.71.15c-5.22,1.61-8.29,10.87-8.4,15.73,0,.16.08,1.19.19,2.41-.52-1.8-1.05-3.59-1.52-5.42-1.35-5.22-2.55-10.58-3.79-16-.26-1.12-.53-2.23-.79-3.35,1.83-.8,8.72-3.95,11.24-6.68s4.82-6.81,4.08-10.58a6.42,6.42,0,0,0-7.31-5.38,4.61,4.61,0,0,0-.72.15c-5.21,1.6-8.3,10.87-8.39,15.73,0,.18.09,1.41.22,2.78-.72-2.91-1.46-5.8-2.28-8.64a113.59,113.59,0,0,0-5.14-14.32c.65-.27,8.8-3.8,11.55-6.84,2.44-2.69,4.81-6.8,4.07-10.58a6.42,6.42,0,0,0-7.31-5.38,2.9,2.9,0,0,0-.71.15c-5.22,1.6-8.29,10.87-8.4,15.73,0,.36.4,4.82.6,6.42V471a85.44,85.44,0,0,0-7.48-12.94,116,116,0,0,0-8.26-10.48c-2.71-3.13-5.39-5.83-7.77-8.19-1.3-1.26-2.5-2.4-3.66-3.45h.13c.1,0-2.55-6.08-2.76-6.42-2.44-4.21-9.63-10.9-14.95-9.74a6.4,6.4,0,0,0-4.72,7.74h0c.06.24.13.48.21.71,1.19,3.64,5.24,6.11,8.67,7.3s11.24.63,13.1.45c1.17,1.11,2.41,2.31,3.74,3.68,2.31,2.4,4.93,5.15,7.55,8.31.7.84,1.43,1.78,2.15,2.67-1.53-1.26-3.63-2.94-3.85-3.09-4.11-2.61-13.57-5.25-17.76-1.76a6.41,6.41,0,0,0-.68,9h0a5.12,5.12,0,0,0,.56.58c2.74,2.7,7.46,3,11.06,2.49s10.45-4.74,11.9-5.67a76.37,76.37,0,0,1,4.59,6.42,82.91,82.91,0,0,1,7.11,12.93c.11.27.19.54.3.82-.64-.76-4.46-4.63-4.81-4.82-3.81-3.05-12.85-6.71-17.47-3.71a6.43,6.43,0,0,0-1.61,8.94,5.09,5.09,0,0,0,.46.58c2.42,3,7.09,3.82,10.72,3.69,4.17-.16,12.41-4.32,12.73-4.48a113.07,113.07,0,0,1,4.64,14c.95,3.52,1.75,7.11,2.54,10.72-.87-.94-4.42-4.54-4.71-4.81-3.79-3-12.84-6.7-17.45-3.71a6.41,6.41,0,0,0-1.63,8.93,6.65,6.65,0,0,0,.46.59c2.44,3,7.1,3.82,10.72,3.69,4.08-.14,12-4.09,12.67-4.43.34,1.61.71,3.21,1,4.93,1.11,5.38,2.2,10.79,3.44,16.05.43,1.83.93,3.63,1.41,5.43-1.33-1.4-3.8-3.89-4-4.08-3.79-3-12.85-6.69-17.45-3.71a6.44,6.44,0,0,0-1.61,9,5.93,5.93,0,0,0,.43.56c2.44,3,7.1,3.82,10.73,3.7s10.37-3.31,12.25-4.23c.83,3,1.71,5.93,2.73,8.78.44,1.22.85,2.49,1.36,3.65q.39.92.75,1.83c-.67-.08-1-.1-1-.1a44.46,44.46,0,0,0,.1,4.47c-4-2.86-9.78-5.32-13.54-3.58a6.42,6.42,0,0,0-2.94,8.59c.11.22.23.43.36.64a7.81,7.81,0,0,0,.83,1.15,25.25,25.25,0,0,0,5.17,11.51c.21.24,2.94,2.75,4.35,4L595,563.9c-2-1.14-4.16-2.41-6.22-3.62l-3.21-2c-1.09-.66-2-1.43-3.1-2.15-1.5-1.09-3-2.28-4.51-3.48,1.29-2,4.93-8,5.46-11.45s.24-8.32-2.44-11.06a6.42,6.42,0,0,0-9.06-.57,7.66,7.66,0,0,0-.57.57c-3.48,4.17-.9,13.65,1.6,17.75.09.13.73,1,1.5,1.9-1.43-1.2-2.88-2.41-4.27-3.68-4-3.61-8-7.41-11.95-11.23l-2.39-2.38c1.08-1.69,5.09-8.12,5.64-11.77s.25-8.31-2.44-11.06a6.43,6.43,0,0,0-9.07-.57,7.66,7.66,0,0,0-.57.57c-3.5,4.18-.91,13.65,1.69,17.76.1.16.85,1.12,1.72,2.2-2.2-2-4.42-4-6.66-5.94A113.78,113.78,0,0,0,534,514.55c.39-.6,5.23-8,5.86-12.09.55-3.58.24-8.32-2.44-11.06a6.41,6.41,0,0,0-9-.58h0a7.66,7.66,0,0,0-.57.57c-3.49,4.17-.9,13.64,1.68,17.75.2.31,3,3.79,4,5l-.15-.1A83.32,83.32,0,0,0,520,507.39a110.68,110.68,0,0,0-12.68-4.19c-4-1.13-7.69-1.9-11-2.54-1.78-.35-3.44-.62-5-.87h.09c.08,0-5.47-3.66-5.86-3.85-4.35-2.15-14-3.77-17.83.13a6.43,6.43,0,0,0,.34,9.08c.18.16.36.31.56.46,3,2.39,7.73,2.21,11.23,1.31s9.64-5.65,11.24-6.85c1.61.29,3.21.61,5.14,1,3.21.72,7,1.6,10.9,2.76,1,.32,2.17.71,3.21,1.06-2-.21-4.66-.47-4.93-.47-4.81.1-14.19,3.12-15.78,8.34a6.42,6.42,0,0,0,4.51,7.88h0a5.63,5.63,0,0,0,.69.14c3.77.74,7.9-1.6,10.6-4s6.1-9.71,6.8-11.23c2.4.8,4.82,1.7,7.36,2.77a83.57,83.57,0,0,1,13,6.86l.7.51c-.94-.27-6.27-1.38-6.64-1.43-4.82-.43-14.45,1.61-16.6,6.55a6.44,6.44,0,0,0,3.58,8.35c.23.09.46.16.69.23,3.68,1.15,8-.73,11-2.83,3.4-2.44,8-10.45,8.16-10.76A113.92,113.92,0,0,1,545,524.89c2.73,2.41,5.38,5,8,7.55-1.24-.33-6.2-1.35-6.55-1.39-4.82-.44-14.45,1.53-16.6,6.54a6.42,6.42,0,0,0,3.57,8.35h0c.23.09.47.17.71.24,3.66,1.14,8-.73,11-2.84,3.32-2.38,7.75-10,8.12-10.68l3.6,3.53c3.88,3.87,7.78,7.77,11.73,11.51,1.37,1.29,2.76,2.52,4.16,3.76-1.88-.43-5.31-1.14-5.62-1.17-4.81-.45-14.45,1.52-16.6,6.53a6.42,6.42,0,0,0,3.57,8.35h0l.72.24c3.67,1.14,8-.72,11-2.84s6.82-8.48,7.88-10.29c2.33,2,4.69,4,7.11,5.83,1.06.77,2.09,1.6,3.21,2.29l3.13,2.09c2.19,1.35,4.21,2.61,6.28,3.82l3,1.76c-1.84-.72-4.81-1.81-5.06-1.87-4.72-1.18-14.44-.68-17.38,4a6.41,6.41,0,0,0,2.25,8.78h0a5.13,5.13,0,0,0,.66.34c3.45,1.61,8,.5,11.24-1.14,3.56-1.81,8.94-8.46,9.63-9.28,2.49,1.41,4.94,2.78,7.26,4,6.16,3.31,11.55,5.94,15.73,7.9,13.56,11.74,32.68,13,32.68,13s1-22.89-12.47-37.95A46.79,46.79,0,0,0,624.25,544.25ZM600,566.56c.43-.93,3.68-8.2,3.9-12.31.76-.13,1.53-.29,2.25-.47A53.48,53.48,0,0,0,614.6,574c-2.47-1.18-5.15-2.49-8-3.92C604.51,568.91,602.29,567.78,600,566.56Z" fill="#0071f2" data-primary="true"/>
<path d="M724.39,539.86s-22.89.71-36.92,15.27-13.85,37.47-13.85,37.47,22.91-.69,36.92-15.27S724.39,539.86,724.39,539.86Z" fill="#0071f2" data-primary="true"/>
<g opacity="0.5">
<path d="M575.53,451.15s7.51-5.92,9.44-9.73c1.6-3.21,2.82-7.83,1.12-11.23a6.4,6.4,0,0,0-8.46-3.26h0a5.46,5.46,0,0,0-.64.32c-4.62,2.88-5.12,12.69-3.94,17.41C573.14,445,575.45,451.22,575.53,451.15Z" fill="#fff"/>
<path d="M506.07,500.57c.32.27,5.66,4.15,5.69,4.06s3-9.09,2.51-13.33c-.42-3.59-2-8-5.28-10a6.42,6.42,0,0,0-8.86,2v0a4,4,0,0,0-.36.64C497.53,488.81,502.52,497.27,506.07,500.57Z" fill="#fff"/>
<path d="M663.39,460.14s-27.5,28.37-27.29,63.24,27.88,63,27.88,63,27.49-28.38,27.3-63.23S663.39,460.14,663.39,460.14Z" fill="#fff"/>
<path d="M624.25,544.25a9.38,9.38,0,0,0,1-1.26c2-3,3.71-7.44,2.42-11.06a6.44,6.44,0,0,0-8-4.22,5.17,5.17,0,0,0-.69.26c-3.73,1.76-5.56,7.75-6,12.65-1.49-.35-2.82-.61-4-.8-.5-1.11-1-2.22-1.49-3.36s-.92-2.33-1.4-3.5c-.66-1.73-1.25-3.56-1.84-5.39,2.16-1,8.5-3.94,10.86-6.54s4.82-6.8,4.07-10.58a6.43,6.43,0,0,0-7.32-5.38,2.9,2.9,0,0,0-.71.15c-5.22,1.61-8.29,10.87-8.4,15.73,0,.16.08,1.19.19,2.41-.52-1.8-1.05-3.59-1.52-5.42-1.35-5.22-2.55-10.58-3.79-16-.26-1.12-.53-2.23-.79-3.35,1.83-.8,8.72-3.95,11.24-6.68s4.82-6.81,4.08-10.58a6.42,6.42,0,0,0-7.31-5.38,4.61,4.61,0,0,0-.72.15c-5.21,1.6-8.3,10.87-8.39,15.73,0,.18.09,1.41.22,2.78-.72-2.91-1.46-5.8-2.28-8.64a113.59,113.59,0,0,0-5.14-14.32c.65-.27,8.8-3.8,11.55-6.84,2.44-2.69,4.81-6.8,4.07-10.58a6.42,6.42,0,0,0-7.31-5.38,2.9,2.9,0,0,0-.71.15c-5.22,1.6-8.29,10.87-8.4,15.73,0,.36.4,4.82.6,6.42V471a85.44,85.44,0,0,0-7.48-12.94,116,116,0,0,0-8.26-10.48c-2.71-3.13-5.39-5.83-7.77-8.19-1.3-1.26-2.5-2.4-3.66-3.45h.13c.1,0-2.55-6.08-2.76-6.42-2.44-4.21-9.63-10.9-14.95-9.74a6.4,6.4,0,0,0-4.72,7.74h0c.06.24.13.48.21.71,1.19,3.64,5.24,6.11,8.67,7.3s11.24.63,13.1.45c1.17,1.11,2.41,2.31,3.74,3.68,2.31,2.4,4.93,5.15,7.55,8.31.7.84,1.43,1.78,2.15,2.67-1.53-1.26-3.63-2.94-3.85-3.09-4.11-2.61-13.57-5.25-17.76-1.76a6.41,6.41,0,0,0-.68,9h0a5.12,5.12,0,0,0,.56.58c2.74,2.7,7.46,3,11.06,2.49s10.45-4.74,11.9-5.67a76.37,76.37,0,0,1,4.59,6.42,82.91,82.91,0,0,1,7.11,12.93c.11.27.19.54.3.82-.64-.76-4.46-4.63-4.81-4.82-3.81-3.05-12.85-6.71-17.47-3.71a6.43,6.43,0,0,0-1.61,8.94,5.09,5.09,0,0,0,.46.58c2.42,3,7.09,3.82,10.72,3.69,4.17-.16,12.41-4.32,12.73-4.48a113.07,113.07,0,0,1,4.64,14c.95,3.52,1.75,7.11,2.54,10.72-.87-.94-4.42-4.54-4.71-4.81-3.79-3-12.84-6.7-17.45-3.71a6.41,6.41,0,0,0-1.63,8.93,6.65,6.65,0,0,0,.46.59c2.44,3,7.1,3.82,10.72,3.69,4.08-.14,12-4.09,12.67-4.43.34,1.61.71,3.21,1,4.93,1.11,5.38,2.2,10.79,3.44,16.05.43,1.83.93,3.63,1.41,5.43-1.33-1.4-3.8-3.89-4-4.08-3.79-3-12.85-6.69-17.45-3.71a6.44,6.44,0,0,0-1.61,9,5.93,5.93,0,0,0,.43.56c2.44,3,7.1,3.82,10.73,3.7s10.37-3.31,12.25-4.23c.83,3,1.71,5.93,2.73,8.78.44,1.22.85,2.49,1.36,3.65q.39.92.75,1.83c-.67-.08-1-.1-1-.1a44.46,44.46,0,0,0,.1,4.47c-4-2.86-9.78-5.32-13.54-3.58a6.42,6.42,0,0,0-2.94,8.59c.11.22.23.43.36.64a7.81,7.81,0,0,0,.83,1.15,25.25,25.25,0,0,0,5.17,11.51c.21.24,2.94,2.75,4.35,4L595,563.9c-2-1.14-4.16-2.41-6.22-3.62l-3.21-2c-1.09-.66-2-1.43-3.1-2.15-1.5-1.09-3-2.28-4.51-3.48,1.29-2,4.93-8,5.46-11.45s.24-8.32-2.44-11.06a6.42,6.42,0,0,0-9.06-.57,7.66,7.66,0,0,0-.57.57c-3.48,4.17-.9,13.65,1.6,17.75.09.13.73,1,1.5,1.9-1.43-1.2-2.88-2.41-4.27-3.68-4-3.61-8-7.41-11.95-11.23l-2.39-2.38c1.08-1.69,5.09-8.12,5.64-11.77s.25-8.31-2.44-11.06a6.43,6.43,0,0,0-9.07-.57,7.66,7.66,0,0,0-.57.57c-3.5,4.18-.91,13.65,1.69,17.76.1.16.85,1.12,1.72,2.2-2.2-2-4.42-4-6.66-5.94A113.78,113.78,0,0,0,534,514.55c.39-.6,5.23-8,5.86-12.09.55-3.58.24-8.32-2.44-11.06a6.41,6.41,0,0,0-9-.58h0a7.66,7.66,0,0,0-.57.57c-3.49,4.17-.9,13.64,1.68,17.75.2.31,3,3.79,4,5l-.15-.1A83.32,83.32,0,0,0,520,507.39a110.68,110.68,0,0,0-12.68-4.19c-4-1.13-7.69-1.9-11-2.54-1.78-.35-3.44-.62-5-.87h.09c.08,0-5.47-3.66-5.86-3.85-4.35-2.15-14-3.77-17.83.13a6.43,6.43,0,0,0,.34,9.08c.18.16.36.31.56.46,3,2.39,7.73,2.21,11.23,1.31s9.64-5.65,11.24-6.85c1.61.29,3.21.61,5.14,1,3.21.72,7,1.6,10.9,2.76,1,.32,2.17.71,3.21,1.06-2-.21-4.66-.47-4.93-.47-4.81.1-14.19,3.12-15.78,8.34a6.42,6.42,0,0,0,4.51,7.88h0a5.63,5.63,0,0,0,.69.14c3.77.74,7.9-1.6,10.6-4s6.1-9.71,6.8-11.23c2.4.8,4.82,1.7,7.36,2.77a83.57,83.57,0,0,1,13,6.86l.7.51c-.94-.27-6.27-1.38-6.64-1.43-4.82-.43-14.45,1.61-16.6,6.55a6.44,6.44,0,0,0,3.58,8.35c.23.09.46.16.69.23,3.68,1.15,8-.73,11-2.83,3.4-2.44,8-10.45,8.16-10.76A113.92,113.92,0,0,1,545,524.89c2.73,2.41,5.38,5,8,7.55-1.24-.33-6.2-1.35-6.55-1.39-4.82-.44-14.45,1.53-16.6,6.54a6.42,6.42,0,0,0,3.57,8.35h0c.23.09.47.17.71.24,3.66,1.14,8-.73,11-2.84,3.32-2.38,7.75-10,8.12-10.68l3.6,3.53c3.88,3.87,7.78,7.77,11.73,11.51,1.37,1.29,2.76,2.52,4.16,3.76-1.88-.43-5.31-1.14-5.62-1.17-4.81-.45-14.45,1.52-16.6,6.53a6.42,6.42,0,0,0,3.57,8.35h0l.72.24c3.67,1.14,8-.72,11-2.84s6.82-8.48,7.88-10.29c2.33,2,4.69,4,7.11,5.83,1.06.77,2.09,1.6,3.21,2.29l3.13,2.09c2.19,1.35,4.21,2.61,6.28,3.82l3,1.76c-1.84-.72-4.81-1.81-5.06-1.87-4.72-1.18-14.44-.68-17.38,4a6.41,6.41,0,0,0,2.25,8.78h0a5.13,5.13,0,0,0,.66.34c3.45,1.61,8,.5,11.24-1.14,3.56-1.81,8.94-8.46,9.63-9.28,2.49,1.41,4.94,2.78,7.26,4,6.16,3.31,11.55,5.94,15.73,7.9,13.56,11.74,32.68,13,32.68,13s1-22.89-12.47-37.95A46.79,46.79,0,0,0,624.25,544.25ZM600,566.56c.43-.93,3.68-8.2,3.9-12.31.76-.13,1.53-.29,2.25-.47A53.48,53.48,0,0,0,614.6,574c-2.47-1.18-5.15-2.49-8-3.92C604.51,568.91,602.29,567.78,600,566.56Z" fill="#fff"/>
<path d="M724.39,539.86s-22.89.71-36.92,15.27-13.85,37.47-13.85,37.47,22.91-.69,36.92-15.27S724.39,539.86,724.39,539.86Z" fill="#fff"/>
</g>
<polygon points="664.6 554.62 687.07 534.41 686.11 533.33 664.58 552.69 664.47 526.19 664.58 526.27 683.6 498.46 682.41 497.64 664.45 523.91 664.18 460.13 662.73 460.14 662.92 503.42 648.61 491.03 647.66 492.12 662.92 505.33 663.05 536.28 641.35 517.08 640.4 518.16 663.07 538.21 663.2 566.38 646.87 553.59 645.99 554.73 663.2 568.23 663.28 586.37 664.72 586.37 664.58 554.62 664.6 554.62" fill="#fff"/>
<polygon points="643.87 562.42 642.42 562.26 640.61 578.28 630.96 567.49 630.98 567.48 628.52 548.1 627.09 548.28 629.29 565.61 605.29 538.79 604.2 539.74 620.5 557.96 610.19 558.07 610.21 559.51 621.76 559.37 633.19 572.15 617.06 572.16 617.08 573.61 634.48 573.59 644.87 585.2 633.5 585.87 633.58 587.32 646.1 586.56 653 594.3 654.08 593.34 641.91 579.73 643.87 562.42" fill="#fff"/>
<polygon points="698.21 568.13 717.36 564.25 717.07 562.84 699.94 566.3 724.91 540.38 723.88 539.37 706.93 556.98 706.04 546.7 704.6 546.82 705.61 558.36 693.73 570.69 692.51 554.62 691.07 554.73 692.38 572.08 681.58 583.3 680.05 572.02 678.63 572.21 680.31 584.64 673.12 592.1 674.15 593.1 686.83 579.95 704.22 580.61 704.26 579.16 688.16 578.55 698.21 568.12 698.21 568.13" fill="#fff"/>
</g>
<polygon points="268.23 128.49 261.67 109.64 155.25 109.64 155.25 128.49 155.25 143.32 155.25 384.18 508.06 384.18 508.06 128.49 268.23 128.49" fill="#0071f2" data-primary="true"/>
<rect x="161.85" y="153.49" width="339.6" height="215.04" fill="#fff"/>
<rect x="268.18" y="135.62" width="168.72" height="10.32" fill="#fff"/>
<path d="M170.19,144.87a.77.77,0,0,1-.58-.26l-5-5.41a.79.79,0,0,1,0-1.12h0l4.86-4.69a.8.8,0,1,1,1.16,1.1l0,0-4.29,4.14,4.5,4.84a.8.8,0,0,1,0,1.13A.83.83,0,0,1,170.19,144.87Z" fill="#2f2e41" data-secondary="true"/>
<path d="M176,139.46H165.14a.81.81,0,0,1-.18-1.61h11a.81.81,0,0,1,0,1.61Z" fill="#2f2e41" data-secondary="true"/>
<path d="M197.42,144.87a.82.82,0,0,1-.55-.22.8.8,0,0,1,0-1.13l4.5-4.84L197,134.54a.8.8,0,0,1,1.11-1.15l4.87,4.69a.81.81,0,0,1,0,1.12l-5,5.41A.8.8,0,0,1,197.42,144.87Z" fill="#2f2e41" data-secondary="true"/>
<path d="M202.46,139.46h-10.8a.81.81,0,0,1-.18-1.61h11a.81.81,0,0,1,0,1.61Z" fill="#2f2e41" data-secondary="true"/>
<path d="M220.89,144.57a5.62,5.62,0,0,1-.18-11.23h0a6.12,6.12,0,0,1,5.76,4.45.79.79,0,0,1-.54,1h0a.79.79,0,0,1-1-.52v0a4.48,4.48,0,0,0-4.21-3.28,4,4,0,0,0-2.57,6.93,3.95,3.95,0,0,0,5.17.28.81.81,0,0,1,1,1.28,5.53,5.53,0,0,1-3.24,1.15Z" fill="#2f2e41" data-secondary="true"/>
<path d="M226.22,139.38h-3.79a.81.81,0,0,1,0-1.61h3v-3.71a.8.8,0,0,1,1.6,0v4.51a.8.8,0,0,1-.79.81Z" fill="#2f2e41" data-secondary="true"/>
<path d="M251.5,145.69h-8.76a.8.8,0,0,1-.8-.8h0V137a.78.78,0,0,1,.28-.61l4.27-3.63a.78.78,0,0,1,1,0l4.5,3.62a.83.83,0,0,1,.3.63v7.91A.82.82,0,0,1,251.5,145.69Zm-8-1.61h7.16v-6.73l-3.68-3-3.48,3Z" fill="#2f2e41" data-secondary="true"/>
<rect x="245.29" y="139.1" width="3.42" height="5.49" fill="#2f2e41" data-secondary="true"/>
<path d="M240.17,140.13a.83.83,0,0,1-.6-1.38h0l2.57-2.36a.8.8,0,0,1,1.11,1.16l0,0-2.57,2.36A.75.75,0,0,1,240.17,140.13Z" fill="#2f2f40"/>
<path d="M253.91,139.92a.78.78,0,0,1-.53-.2L251,137.57a.81.81,0,0,1-.06-1.14.79.79,0,0,1,1.13-.06h0l2.41,2.15a.8.8,0,0,1,.07,1.13.82.82,0,0,1-.61.27Z" fill="#2f2e41" data-secondary="true"/>
<path d="M256.72,127.26a.77.77,0,0,1-.57-.25l-6.84-7a.8.8,0,0,1,1.1-1.16s0,0,.05,0l6.84,7a.81.81,0,0,1,0,1.14A.83.83,0,0,1,256.72,127.26Z" fill="#2f2e41" data-secondary="true"/>
<path d="M249.77,127.16a.8.8,0,0,1-.56-1.38l7-6.84a.8.8,0,1,1,1.12,1.15l-7,6.84A.79.79,0,0,1,249.77,127.16Z" fill="#2f2e41" data-secondary="true"/>
<path d="M497.09,138.3H483.56a.8.8,0,1,1,0-1.6h13.53a.8.8,0,1,1,0,1.6Z" fill="#2f2f40"/>
<path d="M497.09,141.37H483.56a.81.81,0,0,1,0-1.61h13.53a.81.81,0,0,1,0,1.61Z" fill="#2f2f40"/>
<path d="M497.09,144.42H483.56a.81.81,0,0,1,0-1.61h13.53a.81.81,0,0,1,0,1.61Z" fill="#2f2f40"/>
<path d="M497.09,147.47H483.56a.81.81,0,0,1,0-1.61h13.53a.81.81,0,0,1,0,1.61Z" fill="#2f2f40"/>
<polygon points="420.16 74.54 413.6 55.69 307.18 55.69 307.18 74.54 307.18 89.37 307.18 330.22 659.99 330.22 659.99 74.54 420.16 74.54" fill="#0071f2" data-primary="true"/>
<polygon points="420.16 74.54 413.6 55.69 307.18 55.69 307.18 74.54 307.18 89.37 307.18 330.22 659.99 330.22 659.99 74.54 420.16 74.54" fill="#fff" opacity="0.5" style="isolation:isolate"/>
<rect x="313.79" y="99.53" width="339.6" height="215.04" fill="#fff"/>
<rect x="420.11" y="81.66" width="168.72" height="10.32" fill="#fff"/>
<path d="M322.14,90.91a.82.82,0,0,1-.59-.25l-5.05-5.41a.8.8,0,0,1,0-1.13l4.86-4.69a.79.79,0,0,1,1.13,0,.81.81,0,0,1,0,1.14h0l-4.29,4.14,4.52,4.83a.8.8,0,0,1,0,1.13A.82.82,0,0,1,322.14,90.91Z" fill="#2f2e41" data-secondary="true"/>
<path d="M327.9,85.5H317.08a.81.81,0,0,1,0-1.61H327.9a.81.81,0,0,1,.18,1.61A.54.54,0,0,1,327.9,85.5Z" fill="#2f2e41" data-secondary="true"/>
<path d="M349.35,90.91a.82.82,0,0,1-.55-.22.8.8,0,0,1,0-1.13l4.52-4.83L349,80.59a.81.81,0,0,1,0-1.14.79.79,0,0,1,1.13,0L355,84.12a.8.8,0,0,1,0,1.13L350,90.66A.84.84,0,0,1,349.35,90.91Z" fill="#2f2e41" data-secondary="true"/>
<path d="M354.41,85.5H343.59a.81.81,0,0,1-.18-1.61.54.54,0,0,1,.18,0h10.82a.81.81,0,0,1,0,1.61Z" fill="#2f2e41" data-secondary="true"/>
<path d="M372.83,90.64a5.62,5.62,0,1,1-.18-11.24h0a6.14,6.14,0,0,1,5.76,4.47.8.8,0,1,1-1.55.43,4.52,4.52,0,0,0-4.21-3.3,4,4,0,0,0-3.83,4.14A4.06,4.06,0,0,0,373,89a4,4,0,0,0,2.31-.83.81.81,0,1,1,1,1.28A5.68,5.68,0,0,1,373,90.63Z" fill="#2f2e41" data-secondary="true"/>
<path d="M378.15,85.42h-3.77a.81.81,0,0,1,0-1.61h3v-3.7a.8.8,0,0,1,1.6,0h0v4.51a.8.8,0,0,1-.8.8Z" fill="#2f2e41" data-secondary="true"/>
<path d="M403.43,91.73h-8.76a.8.8,0,0,1-.8-.8V83a.8.8,0,0,1,.28-.61l4.27-3.63a.81.81,0,0,1,1,0l4.5,3.63a.79.79,0,0,1,.3.62v7.92A.8.8,0,0,1,403.43,91.73Zm-8-1.61h7.16V83.4l-3.68-3-3.48,2.95Z" fill="#2f2e41" data-secondary="true"/>
<rect x="397.24" y="85.15" width="3.42" height="5.49" fill="#2f2e41" data-secondary="true"/>
<path d="M392.1,86.18a.82.82,0,0,1-.8-.82.84.84,0,0,1,.26-.58l2.57-2.36a.8.8,0,0,1,1.11,1.16l0,0L392.64,86A.75.75,0,0,1,392.1,86.18Z" fill="#2f2e41" data-secondary="true"/>
<path d="M405.84,86a.74.74,0,0,1-.53-.21l-2.41-2.15a.78.78,0,0,1-.07-1.11v0a.8.8,0,0,1,1.13-.07h0l2.41,2.15a.81.81,0,0,1,.06,1.14A.82.82,0,0,1,405.84,86Z" fill="#2f2e41" data-secondary="true"/>
<path d="M408.65,73.3a.78.78,0,0,1-.57-.24l-6.84-7a.8.8,0,1,1,1.15-1.12l6.84,7a.79.79,0,0,1,0,1.12h0A.82.82,0,0,1,408.65,73.3Z" fill="#2f2e41" data-secondary="true"/>
<path d="M401.72,73.2a.83.83,0,0,1-.58-.24.81.81,0,0,1,0-1.14l7-6.83a.79.79,0,0,1,1.12,0h0a.81.81,0,0,1,0,1.14l-7,6.84A.81.81,0,0,1,401.72,73.2Z" fill="#2f2e41" data-secondary="true"/>
<path d="M649,84.36H635.51a.8.8,0,1,1,0-1.6H649a.8.8,0,0,1,0,1.6Z" fill="#2e353a"/>
<path d="M649,87.41H635.51a.8.8,0,1,1,0-1.6H649a.8.8,0,0,1,0,1.6Z" fill="#2e353a"/>
<path d="M649,90.46H635.51a.8.8,0,1,1,0-1.6H649a.8.8,0,0,1,0,1.6Z" fill="#2e353a"/>
<path d="M649,93.51H635.51a.8.8,0,1,1,0-1.6H649a.8.8,0,0,1,0,1.6Z" fill="#2e353a"/>
<polygon points="502.52 152.14 495.94 133.29 389.53 133.29 389.53 152.14 389.53 166.96 389.53 407.82 742.33 407.82 742.33 152.14 502.52 152.14" fill="#0071f2" data-primary="true"/>
<rect x="396.13" y="177.13" width="339.6" height="215.04" fill="#fff"/>
<rect x="502.45" y="159.25" width="168.72" height="10.32" fill="#fff"/>
<path d="M404.48,168.5a.83.83,0,0,1-.59-.26l-5.05-5.39a.8.8,0,0,1,0-1.13l4.87-4.7a.8.8,0,1,1,1.16,1.1l-.05,0-4.29,4.16,4.51,4.82a.8.8,0,0,1,0,1.13.82.82,0,0,1-.55.22Z" fill="#2f2e41" data-secondary="true"/>
<path d="M410.24,163.1H399.42a.8.8,0,0,1,0-1.6h10.82a.8.8,0,1,1,0,1.6Z" fill="#2f2e41" data-secondary="true"/>
<path d="M431.71,168.5a.78.78,0,0,1-.56-1.34h0l4.5-4.82-4.3-4.16a.8.8,0,0,1,0-1.13.79.79,0,0,1,1.12,0h0l4.86,4.7a.8.8,0,0,1,0,1.13l-5,5.39A.81.81,0,0,1,431.71,168.5Z" fill="#2f2e41" data-secondary="true"/>
<path d="M436.75,163.1H425.93a.8.8,0,0,1,0-1.6h10.82a.8.8,0,0,1,0,1.6Z" fill="#2f2e41" data-secondary="true"/>
<path d="M455.06,168.32a5.67,5.67,0,0,1-.73-11.32H455a6.07,6.07,0,0,1,5.73,4.45.79.79,0,0,1-.52,1h0a.8.8,0,0,1-1-.54h0a4.5,4.5,0,0,0-4.21-3.29,4.07,4.07,0,0,0,0,8.13h0a4,4,0,0,0,2.55-.91.81.81,0,0,1,1.13.11h0a.81.81,0,0,1-.11,1.13A5.59,5.59,0,0,1,455.06,168.32Z" fill="#2f2e41" data-secondary="true"/>
<path d="M460.51,163h-3.79a.81.81,0,0,1-.18-1.61h3.18V157.7a.81.81,0,0,1,1.61,0v4.49a.8.8,0,0,1-.79.81Z" fill="#2f2e41" data-secondary="true"/>
<path d="M485.77,169.33H477a.8.8,0,0,1-.8-.8v-7.92a.8.8,0,0,1,.28-.61l4.27-3.64a.78.78,0,0,1,1,0l4.5,3.64a.79.79,0,0,1,.3.62v7.92A.8.8,0,0,1,485.77,169.33Zm-8-1.6H485V161l-3.68-3-3.48,3Z" fill="#2f2e41" data-secondary="true"/>
<rect x="479.58" y="162.75" width="3.42" height="5.49" fill="#2f2e41" data-secondary="true"/>
<path d="M474.44,163.76a.83.83,0,0,1-.6-1.38h0l2.57-2.35a.8.8,0,0,1,1.08,1.19l-2.5,2.34A.77.77,0,0,1,474.44,163.76Z" fill="#2f2e41" data-secondary="true"/>
<path d="M488.2,163.55a.78.78,0,0,1-.53-.2l-2.43-2.13a.82.82,0,0,1-.07-1.14.8.8,0,0,1,1.13-.07h0l2.43,2.14a.8.8,0,0,1-.53,1.4Z" fill="#2f2e41" data-secondary="true"/>
<path d="M491,150.9a.78.78,0,0,1-.57-.24l-6.84-7a.79.79,0,0,1,0-1.12h0a.81.81,0,0,1,1.14,0l6.84,7a.8.8,0,0,1-.58,1.36Z" fill="#2f2e41" data-secondary="true"/>
<path d="M484.06,150.79a.83.83,0,0,1-.58-.24.81.81,0,0,1,0-1.14l7-6.84a.81.81,0,0,1,1.14,0,.79.79,0,0,1,0,1.12h0l-7,6.84A.75.75,0,0,1,484.06,150.79Z" fill="#2f2e41" data-secondary="true"/>
<path d="M731.38,162H717.84a.81.81,0,0,1,0-1.61h13.54a.81.81,0,0,1,0,1.61Z" fill="#2f2e41" data-secondary="true"/>
<path d="M731.38,165H717.84a.81.81,0,0,1,0-1.61h13.54a.81.81,0,0,1,0,1.61Z" fill="#2f2e41" data-secondary="true"/>
<path d="M731.38,168.05H717.84a.81.81,0,0,1,0-1.61h13.54a.81.81,0,0,1,0,1.61Z" fill="#2f2e41" data-secondary="true"/>
<path d="M731.38,171.1H717.84a.81.81,0,0,1,0-1.61h13.54a.81.81,0,0,1,0,1.61Z" fill="#2f2e41" data-secondary="true"/>
<path d="M518.72,287.15H448a.81.81,0,0,1,0-1.61h70.77a.81.81,0,0,1,0,1.61Z" fill="#2f2e41" data-secondary="true"/>
<path d="M518.72,296.3H448a.81.81,0,0,1,0-1.61h70.77a.81.81,0,0,1,0,1.61Z" fill="#2f2e41" data-secondary="true"/>
<path d="M518.72,305.43H448a.8.8,0,0,1,0-1.6h70.77a.8.8,0,0,1,0,1.6Z" fill="#2f2e41" data-secondary="true"/>
<path d="M518.72,314.57H448a.81.81,0,0,1,0-1.61h70.77a.81.81,0,0,1,0,1.61Z" fill="#2f2e41" data-secondary="true"/>
<path d="M518.72,323.7H448a.8.8,0,0,1,0-1.6h70.77a.8.8,0,1,1,0,1.6Z" fill="#2f2e41" data-secondary="true"/>
<path d="M518.72,332.85H448a.8.8,0,0,1,0-1.6h70.77a.8.8,0,0,1,0,1.6Z" fill="#2f2e41" data-secondary="true"/>
<path d="M518.72,342H448a.81.81,0,0,1,0-1.61h70.77a.81.81,0,0,1,0,1.61Z" fill="#2f2e41" data-secondary="true"/>
<path d="M518.72,351.12H448a.8.8,0,0,1,0-1.6h70.77a.8.8,0,0,1,0,1.6Z" fill="#2f2e41" data-secondary="true"/>
<path d="M518.72,360.26H448a.81.81,0,0,1,0-1.61h70.77a.81.81,0,0,1,0,1.61Z" fill="#2f2e41" data-secondary="true"/>
<path d="M601.92,287.15H531.17a.81.81,0,0,1,0-1.61h70.75a.81.81,0,0,1,0,1.61Z" fill="#2f2e41" data-secondary="true"/>
<path d="M601.92,296.3H531.17a.81.81,0,0,1,0-1.61h70.75a.81.81,0,0,1,0,1.61Z" fill="#2f2e41" data-secondary="true"/>
<path d="M601.92,305.43H531.17a.8.8,0,0,1,0-1.6h70.75a.8.8,0,0,1,0,1.6Z" fill="#2f2e41" data-secondary="true"/>
<path d="M601.92,314.57H531.17a.81.81,0,0,1,0-1.61h70.75a.81.81,0,0,1,0,1.61Z" fill="#2f2e41" data-secondary="true"/>
<path d="M601.92,323.7H531.17a.8.8,0,0,1,0-1.6h70.75a.8.8,0,1,1,0,1.6Z" fill="#2f2e41" data-secondary="true"/>
<path d="M601.92,332.85H531.17a.8.8,0,0,1,0-1.6h70.75a.8.8,0,0,1,0,1.6Z" fill="#2f2e41" data-secondary="true"/>
<path d="M601.92,342H531.17a.81.81,0,0,1,0-1.61h70.75a.81.81,0,0,1,0,1.61Z" fill="#2f2e41" data-secondary="true"/>
<path d="M601.92,351.12H531.17a.8.8,0,0,1,0-1.6h70.75a.8.8,0,0,1,0,1.6Z" fill="#2f2e41" data-secondary="true"/>
<path d="M601.92,360.26H531.17a.81.81,0,0,1,0-1.61h70.75a.81.81,0,0,1,0,1.61Z" fill="#2f2e41" data-secondary="true"/>
<path d="M601.92,214.78H531.17a.81.81,0,0,1,0-1.61h70.75a.81.81,0,0,1,0,1.61Z" fill="#2f2e41" data-secondary="true"/>
<path d="M601.92,223.91H531.17a.8.8,0,1,1,0-1.6h70.75a.8.8,0,0,1,0,1.6Z" fill="#2f2e41" data-secondary="true"/>
<path d="M601.92,233.05H531.17a.81.81,0,0,1,0-1.61h70.75a.81.81,0,0,1,0,1.61Z" fill="#2f2e41" data-secondary="true"/>
<path d="M601.92,242.18H531.17a.8.8,0,0,1,0-1.6h70.75a.8.8,0,1,1,0,1.6Z" fill="#2f2e41" data-secondary="true"/>
<path d="M601.92,251.33H531.17a.8.8,0,0,1,0-1.6h70.75a.8.8,0,0,1,0,1.6Z" fill="#2f2e41" data-secondary="true"/>
<path d="M601.92,260.47H531.17a.81.81,0,0,1,0-1.61h70.75a.81.81,0,0,1,0,1.61Z" fill="#2f2e41" data-secondary="true"/>
<path d="M601.92,269.6H531.17a.8.8,0,0,1,0-1.6h70.75a.8.8,0,0,1,0,1.6Z" fill="#2f2e41" data-secondary="true"/>
<path d="M601.92,278.74H531.17a.81.81,0,0,1,0-1.61h70.75a.81.81,0,0,1,0,1.61Z" fill="#2f2e41" data-secondary="true"/>
<path d="M684.81,287.15H614a.81.81,0,0,1,0-1.61h70.77a.81.81,0,0,1,0,1.61Z" fill="#2f2e41" data-secondary="true"/>
<path d="M684.81,296.3H614a.81.81,0,0,1,0-1.61h70.77a.81.81,0,0,1,0,1.61Z" fill="#2f2e41" data-secondary="true"/>
<path d="M684.81,305.43H614a.8.8,0,0,1,0-1.6h70.77a.8.8,0,0,1,0,1.6Z" fill="#2f2e41" data-secondary="true"/>
<path d="M684.81,314.57H614a.81.81,0,0,1,0-1.61h70.77a.81.81,0,0,1,0,1.61Z" fill="#2f2e41" data-secondary="true"/>
<path d="M684.81,323.7H614a.8.8,0,0,1,0-1.6h70.77a.8.8,0,1,1,0,1.6Z" fill="#2f2e41" data-secondary="true"/>
<path d="M684.81,332.85H614a.8.8,0,0,1,0-1.6h70.77a.8.8,0,0,1,0,1.6Z" fill="#2f2e41" data-secondary="true"/>
<path d="M684.81,342H614a.81.81,0,0,1,0-1.61h70.77a.81.81,0,0,1,0,1.61Z" fill="#2f2e41" data-secondary="true"/>
<path d="M684.81,351.12H614a.8.8,0,0,1,0-1.6h70.77a.8.8,0,1,1,0,1.6Z" fill="#2f2e41" data-secondary="true"/>
<path d="M684.81,360.26H614a.81.81,0,0,1,0-1.61h70.77a.81.81,0,0,1,0,1.61Z" fill="#2f2e41" data-secondary="true"/>
<path d="M495.28,228.57a10.94,10.94,0,0,0,.54-3.36c0-4.15-4.2-4.39-8.36-4.39h-1v-1h18v1c-4.7,0-6.34,3-7.87,7.44L487,257c-.74,2.13-1.35,3.72-3.61,3.72h-.18l-8.41-27.51-8,23.79c-.74,2.13-1.35,3.72-3.6,3.72H463L450.67,220.8h-4.33v-1h15.88v1h-4.53l9.16,31.49h.37l6.89-21-3.21-10.5h-4.33v-1h15.86v1H478l9.15,31.49h.37Z" fill="#0071f2" data-primary="true"/>
<rect x="612.66" y="210.69" width="72.82" height="65.82" fill="#0071f2" data-primary="true"/>
<path d="M636.84,225.74a8.17,8.17,0,1,1-8.17-8.17h0A8.17,8.17,0,0,1,636.84,225.74Z" fill="#fff"/>
<path d="M376.81,130.59c-5.93-2.12-24.75,3.5-35.51,11s-6.2,12.06-9.69,18.55-8.06,4.59-9.68,19.65,11.61,17.18,14.8,22.31-4.32,4.58-4.32,4.58a69.67,69.67,0,0,0,19.91,7.8c11.31,2.42,24.21,0,32.28-1.88a32,32,0,0,0,13.45-7s-2.68.53-3.49-1.35,3.49-4.84,3.49-4.84,10.74-4.83,13.71-14.52-12.36-18-12.36-18,5.64-2.69,1.88-12.64-22.53-13.45-22.53-13.45S382.75,132.72,376.81,130.59Z" fill="#2f2e41" data-secondary="true"/>
<path d="M411.07,307.42l-69.49,6.68-1,3.93a192.56,192.56,0,0,0-18.5,63.66c-4,36.53,4.27,84,4.27,84s-11,28-11,56-.92,55.43-2.74,66.37-11,18.48-14.62,29.53,2.37,15.17,6.86,15c4-.13,8.34.57,15-7.34s8.23-31.33,8.83-33.49,5.48-21,10.35-34.08,27.4-61.19,27.4-61.19-.62,29.54-.62,42-5.73,52.06-5.73,52.06-8.28,25.84-8.58,31.93S361,628,363.14,628s17.31,2.14,24.06,2.45,27.15-.31,27.4-4.57-8.89-5.16-13.15-7.6S384.7,604,384.7,603s-1.52-7.9-1.52-7.9,6.33-33.81,16.13-56,12.55-49,13.15-52.06,25.88-79,23.13-114.76a121.94,121.94,0,0,0-22.16-60.39Z" fill="#2f2e41" data-secondary="true"/>
<path d="M370.14,471.17c2.76-11.65,6.05-27.33,6.52-35.86.77-13.91.34-52.56.34-53h1.88c0,.4.43,39.1-.34,53.09-.49,8.66-3.83,24.46-6.57,36.18Z" opacity="0.2" style="isolation:isolate"/>
<path d="M367.23,483s.64-2.52,1.6-6.46l1.88.43c-1,4-1.6,6.5-1.6,6.5Z" opacity="0.2" style="isolation:isolate"/>
<path d="M383.52,379.63c5.25-2.2,11.15-9.66,15.15-15.53l1.56,1.07c-4.17,6.08-10.37,13.82-16,16.19Z" opacity="0.2" style="isolation:isolate"/>
<path d="M401.28,360c1.35-2.16,2.16-3.61,2.16-3.61l1.64.92s-.81,1.54-2.22,3.76Z" opacity="0.2" style="isolation:isolate"/>
<rect x="363.59" y="352.72" width="1.88" height="26.76" transform="translate(-147.21 295.15) rotate(-37.23)" opacity="0.2" style="isolation:isolate"/>
<path d="M351.27,622.91c-.31,6.17,9.62,5.54,11.81,5.54s17.67,2.18,24.55,2.48,27.71-.3,28-4.63-9.07-5.24-13.42-7.72-17.09-14.51-17.09-15.45c0,0-11.71,8.14-22.48,8.56a45.69,45.69,0,0,1-8.59-.33A33.14,33.14,0,0,0,351.27,622.91Z" fill="#0071f2" data-primary="true"/>
<path d="M297.26,618.5c-3.72,11.54,2.41,15.87,7,15.71,4.12-.14,8.49.61,15.33-7.68,5.11-6.21,7.28-21.55,8.29-29.78-1.49,2.16-4.81,6-9.46,5.64-3.8-.26-6.44-4.5-8.35-7.86C306.63,602.66,300.21,609.54,297.26,618.5Z" fill="#0071f2" data-primary="true"/>
<path d="M358.82,199.75s-.26,17.74-1.62,18.55a108.12,108.12,0,0,1-16.9,5.64c-7.53,1.87-19.89,3.71-26.89,13.14s-5.94,29.06-5.94,30.67S301,311.6,301,311.6a127.69,127.69,0,0,0-6.2,26.3c-1.61,14-.22,50.14-.22,51s-2.24,5.52-2.95,7.81c-3,9.39-2.69,13.73-1.88,17.77a53.54,53.54,0,0,0,4,10.76c.52,1.07,1.28,4.47,2.14,6.44,2.33,5.34,5.11.28,4.84-1.33.16-4.05.52-8.1,1.08-12.12,0,0,1.87,5.64,4,5.11s2.16-4.58,2.16-5.91,1-10.22,1.52-14-2.14-9.15-2.14-9.15l4.79-30.78s4-9.17,7.51-18.56,2.69-30,2.69-30,2.14-8.09,3.23-11,9.95-24.21,9.95-24.21,4,28.79,4,30.67-.54,5.63.81,7.79,17.5,5.38,42.24,4,29.3-7.25,30.65-10.21-.28-10.75,0-11.84,2.42-28,2.42-28,17.45,12.1,19.1,13.45,11.55-1.9,18.56-15.87,2.16-30.15,4-41.41a133.83,133.83,0,0,0,1.36-24s9.14-4.56,11.83-7.51,2.14-3.76,1.88-7.51-10.22-20.17-10.22-20.17A87.84,87.84,0,0,1,468,158.88c1.62-1.9,3.74-3.51,3.5-6.2s-4.81-2.37-9.39,1.07-9.43,11-15.61,22.54a39,39,0,0,0-4.3,23.4c0,2.95-9.69,40.34-9.69,40.34a30.83,30.83,0,0,1-5.37-5.92c-1.36-2.38-8.36-14.19-13.73-16.9s-16.4-.52-18,0-11,.28-11.83-2.42.26-18.29.26-18.29Z" fill="#f9b499"/>
<path d="M424.66,262.36c-.26-11.57,7.8-22.33,7.8-22.33a30.83,30.83,0,0,1-5.37-5.92c-1.36-2.38-8.36-14.19-13.73-16.9s-16.4-.52-18,0-11,.28-11.83-2.42.26-18.29.26-18.29l-25,3.21s-.26,17.75-1.62,18.55a107.08,107.08,0,0,1-16.9,5.64c-7.53,1.88-19.89,3.72-26.89,13.14s-5.94,29.06-5.94,30.67c0,.89-2,15.18-3.92,27.18a59.32,59.32,0,0,0,22.78,7.51c2.22-5.61,9.39-22.8,9.39-22.8s4,28.79,4,30.67-.55,5.63.8,7.79,17.51,5.38,42.24,4,29.3-7.25,30.65-10.21-.28-10.75,0-11.84,2.43-28,2.43-28l12.87,9A47.69,47.69,0,0,1,424.66,262.36Z" fill="#0071f2" data-primary="true"/>
<path d="M424.66,262.36c-.26-11.57,7.8-22.33,7.8-22.33a30.83,30.83,0,0,1-5.37-5.92c-1.36-2.38-8.36-14.19-13.73-16.9s-16.4-.52-18,0-11,.28-11.83-2.42.26-18.29.26-18.29l-25,3.21s-.26,17.75-1.62,18.55a107.08,107.08,0,0,1-16.9,5.64c-7.53,1.88-19.89,3.72-26.89,13.14s-5.94,29.06-5.94,30.67c0,.89-2,15.18-3.92,27.18a59.32,59.32,0,0,0,22.78,7.51c2.22-5.61,9.39-22.8,9.39-22.8s4,28.79,4,30.67-.55,5.63.8,7.79,17.51,5.38,42.24,4,29.3-7.25,30.65-10.21-.28-10.75,0-11.84,2.43-28,2.43-28l12.87,9A47.69,47.69,0,0,1,424.66,262.36Z" fill="#fff" opacity="0.2" style="isolation:isolate"/>
<path d="M376.51,240.07c16.06-3.14,18.05-16.77,18.14-22.75-2.68.34-10.33.17-11.13-2.53s.26-18.29.26-18.29l-24.94,3.23s-.27,17.74-1.62,18.55a97.8,97.8,0,0,1-14.31,5C350,231.22,362.78,242.75,376.51,240.07Z" fill="#f9b499"/>
<polygon points="383.85 196.5 382.67 207.45 372.02 206.71 383.85 196.5" fill="#263238"/>
<path d="M362.44,204.12l21.48-10.93-.67,15.35a15.82,15.82,0,0,1-12.43,1.79A15.46,15.46,0,0,1,362.44,204.12Z" fill="#f7a48b"/>
<path d="M380.45,268.18c.81-5.67-4.82-27.66-4.82-27.89l1.88-.45c.22.92,5.67,22.58,4.86,28.59Z" fill="#0071f2" data-primary="true"/>
<path d="M410.77,239.22l1.57-1a43.36,43.36,0,0,1,3,5.78l-1.73.75A43.69,43.69,0,0,0,410.77,239.22Z" fill="#0071f2" data-primary="true"/>
<path d="M414.79,271.75c.09-.06,2.38-5,1.87-14.35a35.41,35.41,0,0,0-1.87-9.39l1.76-.6a35.88,35.88,0,0,1,2.05,9.82c.62,9.81-1.88,15-1.88,15.25Z" fill="#0071f2" data-primary="true"/>
<rect x="333.25" y="261.46" width="1.88" height="18.24" transform="translate(-41.54 61.49) rotate(-9.9)" fill="#0071f2" data-primary="true"/>
<path d="M349.2,158.58l-3.49,14.53-3.49.81c-1.07.25-1.88,3.21-2.43,7.51s6.2,7,6.2,7,2.46,7.25,7.25,11,12.6,7.26,18.78,7.26,14.24-8.88,18-15.87,1.62-13.44,1.62-21-.53-14.54-.53-14.54L373.9,143.5C369.05,150.22,349.2,158.58,349.2,158.58Z" fill="#f9b499"/>
<path d="M392,185.4s5.86-4.23,5.59-9.62-6.16-2.54-6.16-2.54Z" fill="#f9b499"/>
<path d="M463.31,173.66s-3.3,4.21-3,7.51,2.56,3.8,5.34,2,6.53-6.59,4.3-11.16-7.52-3-7.52-3Z" fill="#f9b499"/>
<path d="M463.86,184.48s-1,4,2,4.3,8.88-3.74,9.39-6.84S470.3,175,470.3,175C469.08,178.81,463.86,184.48,463.86,184.48Z" fill="#f9b499"/>
<path d="M465.89,188.78s-1.28,3.3.51,5.33,7.13,1,9.12-2.53-2-7.25-2-7.25C473.26,186.12,465.89,188.78,465.89,188.78Z" fill="#f9b499"/>
<path d="M443.73,199.43S441,190.81,440,186a24.9,24.9,0,0,1,1-10.91s1.26-2.8,3-8.12,4.07-11.15,6.85-7.6-.26,11.92-.77,14.2a25,25,0,0,1-1.26,4.05s4.3,6.09,4.57,10.91a16.9,16.9,0,0,1-2,8.62" fill="#f9b499"/>
<path d="M612.66,276.51v-18.9s9.8-13.52,26-1c0,0,32,22.12,46.91-10.45v30.37Z" fill="#2f2e41" data-secondary="true"/>
</svg>