<svg width="28" height="28" viewBox="0 0 28 28" fill="none" xmlns="http://www.w3.org/2000/svg">
<path d="M27.579 0.131105C27.4874 0.107464 27.3904 0.11609 27.3045 0.155532C27.2185 0.194974 27.1487 0.262825 27.1069 0.347667C27.0694 0.424542 26.1415 2.24892 22.077 4.39532C22.0209 4.41984 21.971 4.45664 21.9309 4.503C21.8909 4.54936 21.8618 4.60411 21.8457 4.66321C21.5917 5.61437 21.2473 6.53905 20.8172 7.42462C20.58 6.91056 20.4209 6.36388 20.3454 5.80275C20.3365 5.74054 20.3134 5.68122 20.2779 5.62936C20.2424 5.57751 20.1954 5.53451 20.1406 5.50368C20.0859 5.47286 20.0248 5.45503 19.962 5.45157C19.8993 5.44812 19.8365 5.45913 19.7787 5.48376C18.7044 5.9415 17.5351 6.37743 16.3032 6.77915C14.6698 7.30117 13.0938 7.98806 11.5995 8.82923C11.5131 8.87882 11.4476 8.95823 11.4155 9.05259C11.2302 9.59634 11.0301 10.1099 10.8151 10.5934C10.824 10.4321 10.8358 10.2607 10.8507 10.0792C10.8571 10.0017 10.8414 9.92394 10.8053 9.85505C10.7693 9.78615 10.7144 9.72893 10.6471 9.69004C10.5797 9.65116 10.5027 9.63221 10.425 9.63541C10.3473 9.63862 10.2722 9.66384 10.2083 9.70814C6.04131 12.5938 3.77068 16.6665 3.06545 22.5102C1.99779 23.627 1.05995 24.861 0.269822 26.1887C0.122236 26.4395 0.0759976 26.7371 0.140558 27.0209C0.205119 27.3046 0.375604 27.5529 0.617166 27.7152C0.795653 27.8302 1.00344 27.8914 1.21576 27.8917H19.9658C20.0745 27.8917 20.1789 27.8484 20.2558 27.7715C20.3327 27.6946 20.3759 27.5903 20.3759 27.4815C20.3759 27.3727 20.3327 27.2684 20.2558 27.1915C20.1789 27.1146 20.0745 27.0713 19.9658 27.0713H2.34334C3.05551 25.9243 3.8888 24.8571 4.82889 23.8881C8.87209 23.6898 18.2476 22.8732 21.9322 19.5418C22.1996 19.2998 22.4539 19.0437 22.6941 18.7747C22.7423 18.7211 22.7754 18.6558 22.7903 18.5853C22.8052 18.5148 22.8012 18.4417 22.7788 18.3732C22.7565 18.3047 22.7164 18.2434 22.6628 18.1953C22.6092 18.1472 22.5438 18.114 22.4733 18.0992C22.3854 18.0809 22.2985 18.0617 22.212 18.0423C22.5036 18.001 22.8312 17.9619 23.1924 17.9295C23.2524 17.924 23.3104 17.9054 23.3624 17.8751C23.4144 17.8447 23.4591 17.8033 23.4933 17.7538C26.4884 13.4075 27.3504 10.0311 27.8848 0.550636C27.8901 0.456158 27.8625 0.362776 27.8067 0.286316C27.751 0.209856 27.6705 0.155021 27.579 0.131105ZM0.978338 26.6019C3.53303 22.2191 8.26037 18.8884 13.265 15.3627C14.3122 14.6251 15.5 13.7891 16.6383 12.9531C16.6887 12.9157 16.7498 12.8955 16.8125 12.8954C16.8282 12.8954 16.8439 12.8967 16.8594 12.8992C16.8973 12.905 16.9337 12.9184 16.9664 12.9385C16.999 12.9586 17.0274 12.9851 17.0497 13.0163C17.0952 13.079 17.1142 13.1571 17.1025 13.2336C17.0909 13.3102 17.0495 13.3791 16.9873 13.4253C15.8438 14.2627 14.6529 15.1016 13.6015 15.8417C8.64146 19.3363 3.95631 22.637 1.46701 26.926C1.44723 26.9602 1.42071 26.9899 1.38906 27.0135C1.35741 27.037 1.3213 27.0539 1.28293 27.063C1.24455 27.0722 1.20472 27.0734 1.16585 27.0666C1.12699 27.0599 1.0899 27.0453 1.05685 27.0238C0.993418 26.976 0.950177 26.9062 0.935645 26.8281C0.921113 26.75 0.936344 26.6693 0.978338 26.6019ZM22.9257 17.1306C22.0574 17.2028 21.1973 17.3519 20.3553 17.5759C20.2727 17.6009 20.2001 17.6513 20.1478 17.72C20.0955 17.7887 20.0662 17.8721 20.0641 17.9584C20.0619 18.0447 20.087 18.1294 20.1358 18.2006C20.1846 18.2718 20.2546 18.3258 20.3358 18.3549C20.7305 18.4956 21.1512 18.6235 21.5928 18.7365C21.5225 18.8038 21.4533 18.8689 21.3819 18.9327C18.0978 21.902 9.54287 22.7729 5.69326 23.0176C8.06326 20.7481 11.0157 18.6676 14.075 16.5125C15.1297 15.7702 16.3226 14.9291 17.4713 14.0865C17.7077 13.9117 17.8657 13.6507 17.9108 13.3602C17.956 13.0696 17.8847 12.773 17.7125 12.5347C17.6264 12.4159 17.5176 12.3154 17.3925 12.2388C17.2674 12.1623 17.1283 12.1113 16.9834 12.0887C16.8384 12.0661 16.6905 12.0725 16.548 12.1073C16.4055 12.1422 16.2713 12.2049 16.1532 12.2919C15.0202 13.123 13.8366 13.9559 12.7925 14.6924C9.60873 16.9353 6.53607 19.1005 4.03435 21.5213C4.79724 16.8292 6.7081 13.4087 9.97998 10.8901C9.95647 11.3683 9.96265 11.8475 9.99849 12.3249C10.0071 12.4108 10.0426 12.4917 10.0998 12.5562C10.1571 12.6208 10.2333 12.6656 10.3175 12.6843C10.4017 12.7031 10.4897 12.6948 10.5689 12.6606C10.6481 12.6265 10.7146 12.5682 10.7588 12.4942C11.3197 11.5332 11.783 10.5184 12.1416 9.46509C13.5482 8.68715 15.0276 8.0488 16.5587 7.55915C17.6344 7.20759 18.6643 6.83118 19.6273 6.4365C19.925 7.80337 20.5006 8.49314 20.528 8.52501C20.5708 8.57525 20.625 8.61443 20.6861 8.63923C20.7473 8.66404 20.8135 8.67374 20.8791 8.6675C20.9448 8.66127 21.008 8.63929 21.0634 8.60343C21.1187 8.56756 21.1646 8.51888 21.1972 8.4615C21.7958 7.38471 22.2633 6.24007 22.5896 5.05204C24.8972 3.81782 26.2355 2.67032 26.9848 1.8622C26.4598 10.0236 25.5861 13.2207 22.9257 17.1306Z" fill="#87A900"/>
<path d="M25.3128 8.38444C25.2597 8.37478 25.2053 8.37568 25.1526 8.38709C25.0999 8.39851 25.05 8.42021 25.0057 8.45095C24.9614 8.4817 24.9236 8.52088 24.8945 8.56626C24.8654 8.61163 24.8455 8.66231 24.8361 8.71538C24.7243 9.33718 24.6017 9.90436 24.4643 10.4498C24.4377 10.5552 24.454 10.6669 24.5097 10.7603C24.5654 10.8538 24.6559 10.9213 24.7613 10.948C24.7943 10.9564 24.8282 10.9606 24.8623 10.9605C24.9535 10.9604 25.0421 10.9299 25.114 10.8739C25.1859 10.8179 25.2372 10.7395 25.2596 10.6511C25.4023 10.0886 25.5282 9.50265 25.6437 8.86116C25.663 8.75406 25.639 8.64367 25.577 8.55427C25.5149 8.46487 25.4199 8.40378 25.3128 8.38444Z" fill="#87A900"/>
</svg>
